<svg width="20" height="20" viewBox="0 0 20 20" fill="none" xmlns="http://www.w3.org/2000/svg">
<path d="M-2.55417e-05 2.92969L-2.49236e-05 17.0703C-2.4853e-05 18.6856 1.31437 20 2.92966 20L17.0703 20C18.6856 20 20 18.6856 20 17.0703L20 11.1719L12.9297 11.1719L12.9297 13.5156L9.41404 13.5156L9.41404 11.1719L7.03122 11.1719C5.0926 11.1719 3.5156 9.59488 3.5156 7.65625L3.5156 4.10156L7.03122 4.10156L7.03122 7.65625L9.41404 7.65625L9.41404 4.10156L12.9297 4.6875L12.9297 7.65625L20 7.65625L20 2.92969C20 1.31439 18.6856 -1.05519e-06 17.0703 -9.84586e-07L2.92966 -3.66479e-07C1.31437 -2.95872e-07 -2.56123e-05 1.31439 -2.55417e-05 2.92969Z" fill="#B08968"/>
</svg>
