<svg width="19" height="20" viewBox="0 0 19 20" fill="none" xmlns="http://www.w3.org/2000/svg">
<path d="M-2.52326e-05 9.99951C-2.49911e-05 15.5245 4.36165 19.9995 9.74105 19.9995C14.0457 19.9995 17.6961 17.1345 18.9832 13.162C19.0749 12.662 18.7733 12.4787 18.5148 12.4787C18.2835 12.4787 17.6705 12.487 16.8585 12.4912C17.4458 15.2728 15.5517 15.8595 15.5517 15.8595C14.4274 16.3145 14.1267 16.972 14.1267 16.972C13.5228 17.8778 13.5352 16.902 13.5352 16.902C13.6029 15.8978 14.5389 15.3703 14.5389 15.3703C16.0283 14.4787 15.5979 13.0295 15.3493 12.4578C14.719 12.3678 14.2902 12.1103 14.0465 11.8245C13.8029 14.0453 12.9652 16.3795 9.23301 16.3795C8.16985 16.3795 7.30082 15.992 6.61931 15.3503C6.37314 15.4628 5.38268 15.8003 4.04113 15.2628C4.04113 15.2628 3.78009 14.4253 5.03986 12.5128C4.82342 11.7128 4.71603 10.8628 4.71108 10.0128C4.71603 9.16284 4.82342 8.31284 5.03986 7.51284C3.78009 5.61284 4.04113 4.77535 4.04113 4.77535C5.38268 4.23785 6.37314 4.57535 6.61931 4.67535C7.30082 4.03785 8.16985 3.65035 9.23301 3.65035C12.9751 3.65035 13.7987 5.98784 14.0383 8.21284C14.3307 7.86284 14.928 7.53784 15.8408 7.53784C17.1443 7.53784 18.1918 7.55034 18.5082 7.55034C18.7634 7.55034 19.0683 7.37534 18.9708 6.86284C17.692 2.86201 14.0391 -0.000488895 9.74105 -0.000488707C4.36165 -0.000488472 -2.5474e-05 4.47701 -2.52326e-05 9.99951Z" fill="#B08968"/>
</svg>
