<svg width="20" height="20" viewBox="0 0 20 20" fill="none" xmlns="http://www.w3.org/2000/svg">
<path d="M-2.53966e-05 6.25L-2.50687e-05 13.75C-2.49179e-05 17.2012 2.79873 20 6.24998 20L13.75 20C17.2012 20 20 17.2012 20 13.75L20 6.25C20 2.79875 17.2012 -7.51891e-07 13.75 -6.01032e-07L6.24997 -2.73196e-07C2.79872 -1.22337e-07 -2.55474e-05 2.79875 -2.53966e-05 6.25ZM13.75 1.875C16.1625 1.875 18.125 3.8375 18.125 6.25L18.125 13.75C18.125 16.1625 16.1625 18.125 13.75 18.125L6.24998 18.125C3.83748 18.125 1.87498 16.1625 1.87497 13.75L1.87497 6.25C1.87497 3.8375 3.83747 1.875 6.24997 1.875L13.75 1.875Z" fill="#B08968"/>
<path d="M4.99997 10C4.99998 12.7613 7.23873 15 9.99998 15C12.7612 15 15 12.7612 15 10C15 7.23875 12.7612 5 9.99997 5C7.23872 5 4.99997 7.23875 4.99997 10ZM13.125 10C13.125 11.7225 11.7225 13.125 9.99998 13.125C8.27623 13.125 6.87498 11.7225 6.87497 10C6.87497 8.2775 8.27622 6.875 9.99997 6.875C11.7225 6.875 13.125 8.2775 13.125 10Z" fill="#B08968"/>
<path d="M5.29121 4.625C5.29121 4.25704 4.99292 3.95875 4.62496 3.95875C4.257 3.95875 3.95871 4.25704 3.95871 4.625C3.95871 4.99296 4.257 5.29125 4.62496 5.29125C4.99292 5.29125 5.29121 4.99296 5.29121 4.625Z" fill="#B08968"/>
</svg>
